<svg width="117" height="35" viewBox="0 0 117 35" fill="none" xmlns="http://www.w3.org/2000/svg">
<path d="M14.8608 10.5571C17.5403 10.5571 19.6896 11.4453 21.3085 13.2217C22.9274 14.9703 23.7368 17.385 23.7368 20.4659V34.0384H16.6192V21.4235C16.6192 19.8691 16.2145 18.6618 15.4051 17.8013C14.5956 16.9409 13.507 16.5107 12.1393 16.5107C10.7717 16.5107 9.68309 16.9409 8.87363 17.8013C8.06417 18.6618 7.65945 19.8691 7.65945 21.4235V34.0384H0.5V3.22959H7.65945V13.9294C8.38518 12.9025 9.37605 12.0837 10.6321 11.473C11.8881 10.8624 13.2977 10.5571 14.8608 10.5571ZM32.3126 8.39216C31.0565 8.39216 30.0238 8.03134 29.2143 7.30968C28.4328 6.56028 28.042 5.64434 28.042 4.56187C28.042 3.45164 28.4328 2.5357 29.2143 1.81405C30.0238 1.06464 31.0565 0.689941 32.3126 0.689941C33.5408 0.689941 34.5457 1.06464 35.3271 1.81405C36.1367 2.5357 36.5413 3.45164 36.5413 4.56187C36.5413 5.64434 36.1367 6.56028 35.3271 7.30968C34.5457 8.03134 33.5408 8.39216 32.3126 8.39216ZM35.8714 10.8069V34.0384H28.7119V10.8069H35.8714ZM55.3368 34.0384L48.2192 24.2962V34.0384H41.0598V3.22959H48.2192V20.2577L55.2949 10.8069H64.1291L54.4157 22.4643L64.2128 34.0384H55.3368ZM81.2182 34.0384L74.1006 24.2962V34.0384H66.9411V3.22959H74.1006V20.2577L81.1763 10.8069H90.0105L80.2971 22.4643L90.0942 34.0384H81.2182ZM91.399 22.381C91.399 19.994 91.8455 17.8985 92.7388 16.0944C93.6599 14.2902 94.9019 12.9025 96.465 11.931C98.0282 10.9596 99.7726 10.4738 101.699 10.4738C103.345 10.4738 104.783 10.8069 106.011 11.473C107.267 12.1392 108.23 13.0135 108.9 14.096V10.8069H116.059V34.0384H108.9V30.7494C108.202 31.8319 107.225 32.7062 105.969 33.3723C104.741 34.0384 103.304 34.3715 101.657 34.3715C99.7586 34.3715 98.0282 33.8859 96.465 32.9143C94.9019 31.9151 93.6599 30.5135 92.7388 28.7093C91.8455 26.8775 91.399 24.768 91.399 22.381ZM108.9 22.4227C108.9 20.6463 108.397 19.2446 107.393 18.2177C106.416 17.1907 105.215 16.6772 103.792 16.6772C102.368 16.6772 101.154 17.1907 100.149 18.2177C99.1724 19.2169 98.684 20.6047 98.684 22.381C98.684 24.1574 99.1724 25.5729 100.149 26.6277C101.154 27.6546 102.368 28.1681 103.792 28.1681C105.215 28.1681 106.416 27.6546 107.393 26.6277C108.397 25.6007 108.9 24.199 108.9 22.4227Z" fill="white"/>
</svg>
