<svg width="24" height="32" viewBox="0 0 24 32" fill="none" xmlns="http://www.w3.org/2000/svg">
<path d="M14.8608 7.55712C17.5403 7.55712 19.6896 8.44532 21.3085 10.2217C22.9274 11.9703 23.7368 14.385 23.7368 17.4659V31.0384H16.6192V18.4235C16.6192 16.8691 16.2145 15.6618 15.4051 14.8013C14.5956 13.9409 13.507 13.5107 12.1393 13.5107C10.7717 13.5107 9.68309 13.9409 8.87363 14.8013C8.06417 15.6618 7.65945 16.8691 7.65945 18.4235V31.0384H0.5V0.229614H7.65945V10.9294C8.38518 9.90252 9.37605 9.08372 10.6321 8.47302C11.8881 7.86242 13.2977 7.55712 14.8608 7.55712Z" fill="white"/>
</svg>
